<?xml version="1.0" standalone="no"?>
<!DOCTYPE svg PUBLIC "-//W3C//DTD SVG 20010904//EN"
 "http://www.w3.org/TR/2001/REC-SVG-20010904/DTD/svg10.dtd">
<svg version="1.0" xmlns="http://www.w3.org/2000/svg"
 width="32.000000pt" height="32.000000pt" viewBox="0 0 32.000000 32.000000"
 preserveAspectRatio="xMidYMid meet">

<g transform="translate(0.000000,32.000000) scale(0.100000,-0.100000)"
fill="#1c4980" stroke="none">
<path d="M14 297 c-2 -7 -3 -74 -2 -148 l3 -134 145 0 145 0 0 145 0 145 -143
3 c-111 2 -144 0 -148 -11z m276 -27 c0 -19 -7 -20 -130 -20 -123 0 -130 1
-130 20 0 19 7 20 130 20 123 0 130 -1 130 -20z m0 -140 l0 -100 -130 0 -130
0 0 100 0 100 130 0 130 0 0 -100z"/>
<path d="M50 270 c0 -5 5 -10 11 -10 5 0 7 5 4 10 -3 6 -8 10 -11 10 -2 0 -4
-4 -4 -10z"/>
<path d="M80 270 c0 -5 5 -10 10 -10 6 0 10 5 10 10 0 6 -4 10 -10 10 -5 0
-10 -4 -10 -10z"/>
<path d="M140 175 c-7 -8 -23 -15 -35 -15 -31 0 -49 -24 -41 -55 6 -23 11 -25
61 -25 30 0 55 4 55 8 0 5 17 13 38 18 40 10 55 42 32 70 -17 19 -94 19 -110
-1z m97 -21 c6 -16 -12 -34 -32 -34 -5 1 -18 12 -28 25 l-18 25 36 0 c23 0 38
-5 42 -16z m-97 -34 l20 -20 -40 0 c-27 0 -40 4 -40 13 0 32 31 36 60 7z"/>
</g>
</svg>
