<?xml version="1.0" standalone="no"?>
<!DOCTYPE svg PUBLIC "-//W3C//DTD SVG 20010904//EN"
 "http://www.w3.org/TR/2001/REC-SVG-20010904/DTD/svg10.dtd">
<svg version="1.0" xmlns="http://www.w3.org/2000/svg"
 width="32.000000pt" height="32.000000pt" viewBox="0 0 32.000000 32.000000"
 preserveAspectRatio="xMidYMid meet" fill="#1c4980">

<g transform="translate(0.000000,32.000000) scale(0.100000,-0.100000)"
fill="#1c4980" stroke="none" >
<path d="M60 300 l-55 -17 0 -139 0 -139 115 0 115 0 3 60 c3 55 6 64 43 101
25 26 40 49 37 60 -4 22 -43 31 -63 14 -11 -9 -14 -6 -17 15 -2 21 -11 30 -42
40 -67 23 -80 24 -136 5z m95 -10 c14 -6 5 -9 -35 -9 -40 0 -49 3 -35 9 11 5
27 9 35 9 8 0 24 -4 35 -9z m73 -44 c6 -47 -31 -76 -97 -78 l-56 -2 49 -3 c47
-4 48 -5 30 -24 -9 -10 -31 -20 -48 -20 -30 -2 -30 -2 -3 -6 32 -5 37 -32 7
-40 -11 -3 -20 -10 -20 -15 0 -16 71 0 102 23 15 10 30 19 33 19 3 0 5 -19 3
-43 l-3 -42 -105 0 -105 0 -3 119 c-1 66 -1 125 1 130 3 7 44 11 108 10 l104
-1 3 -27z m75 -20 c9 -22 -18 -40 -33 -22 -6 9 -9 20 -5 26 9 15 32 12 38 -4z
m-73 -91 c-39 -40 -46 -43 -59 -30 -14 13 -10 20 29 60 39 40 46 43 59 30 14
-13 10 -20 -29 -60z m-68 -50 c0 -5 -5 -11 -11 -13 -6 -2 -11 4 -11 13 0 9 5
15 11 13 6 -2 11 -8 11 -13z"/>
<path d="M35 230 c-7 -12 2 -30 16 -30 5 0 9 9 9 20 0 21 -15 27 -25 10z"/>
<path d="M90 220 c0 -6 27 -10 60 -10 33 0 60 4 60 10 0 6 -27 10 -60 10 -33
0 -60 -4 -60 -10z"/>
<path d="M37 183 c-4 -3 -7 -12 -7 -20 0 -15 26 -18 34 -4 7 11 -18 33 -27 24z"/>
<path d="M30 116 c0 -8 4 -17 9 -20 11 -7 33 18 24 27 -12 12 -33 7 -33 -7z"/>
<path d="M35 70 c-7 -12 2 -30 16 -30 5 0 9 9 9 20 0 21 -15 27 -25 10z"/>
</g>
</svg>



